<svg xmlns="http://www.w3.org/2000/svg" xmlns:xlink="http://www.w3.org/1999/xlink" viewBox="0 0 66 44" fill="#fff" fill-rule="evenodd" stroke="#000" stroke-linecap="round" stroke-linejoin="round"><use xlink:href="#A" x=".5" y=".5"/><symbol id="A" overflow="visible"><g stroke="none" fill="#127cc1" fill-rule="nonzero"><path d="M63.72 12.034C60.703-2.662 32.275-3.602 13.95 7.595v1.246C32.253-.606 58.21-.562 60.594 12.974c.787 4.483-1.706 9.14-6.2 11.83v3.52c5.4-2 10.934-8.42 9.337-16.3M30.394 37.751C17.755 38.932 4.57 37.073 2.732 27.168c-.918-4.876 1.312-10.06 4.264-13.296v-1.728C1.682 16.823-1.204 22.728.48 29.682c2.12 8.943 13.426 14.016 30.68 12.333 6.845-.656 15.788-2.865 21.977-6.298v-4.876c-5.642 3.4-14.957 6.2-22.742 6.9z"/><path d="M52.13 9.891h-3.324v14.827c0 1.75.83 3.258 3.324 3.5M12.638 15.315H9.336v9.687c0 1.75.83 3.258 3.324 3.5m-3.324-18.15h3.324v3.15H9.336zm23.18 17.997c-2.7 0-3.827-1.88-3.827-3.717v-12.88h3.28v3.564h2.493v2.668H31.97v6.43c0 .765.372 1.18 1.137 1.18h1.334v2.755h-1.924m8.703-10.52c-1.115 0-2 .6-2.34 1.378-.22.48-.284.83-.328 1.42h5.073c-.066-1.443-.722-2.8-2.405-2.8m-2.668 5.03c0 1.684 1.05 2.93 2.908 2.93 1.465 0 2.187-.415 3.018-1.246l2.034 1.946c-1.312 1.3-2.668 2.077-5.073 2.077-3.15 0-6.167-1.728-6.167-6.757 0-4.286 2.624-6.713 6.08-6.713 3.5 0 5.5 2.843 5.5 6.582v1.18h-8.3m-16.98-4.873c.962 0 1.356.48 1.356 1.246v9.12h3.28v-9.12c0-1.86-.984-3.914-3.87-3.914h-6.78v13.053h3.28V17.982"/></g></symbol></svg>